<?xml version="1.0" encoding="UTF-8" standalone="no"?>
<!-- Created with Inkscape (http://www.inkscape.org/) -->

<svg
   xmlns:dc="http://purl.org/dc/elements/1.1/"
   xmlns:cc="http://creativecommons.org/ns#"
   xmlns:rdf="http://www.w3.org/1999/02/22-rdf-syntax-ns#"
   xmlns:svg="http://www.w3.org/2000/svg"
   xmlns="http://www.w3.org/2000/svg"
   xmlns:sodipodi="http://sodipodi.sourceforge.net/DTD/sodipodi-0.dtd"
   xmlns:inkscape="http://www.inkscape.org/namespaces/inkscape"
   width="35.547974mm"
   height="57.763821mm"
   viewBox="0 0 125.95739 204.67495"
   id="svg3797"
   version="1.1"
   inkscape:version="0.91 r13725">
  <defs
     id="defs3799" />
  <sodipodi:namedview
     id="base"
     pagecolor="#ffffff"
     bordercolor="#666666"
     borderopacity="1.0"
     inkscape:pageopacity="0.0"
     inkscape:pageshadow="2"
     inkscape:zoom="0.35"
     inkscape:cx="57.978698"
     inkscape:cy="68.051758"
     inkscape:document-units="px"
     inkscape:current-layer="layer1"
     showgrid="false"
     fit-margin-top="0"
     fit-margin-left="0"
     fit-margin-right="0"
     fit-margin-bottom="0"
     inkscape:window-width="2560"
     inkscape:window-height="1377"
     inkscape:window-x="1672"
     inkscape:window-y="-8"
     inkscape:window-maximized="1" />
  <metadata
     id="metadata3802">
    <rdf:RDF>
      <cc:Work
         rdf:about="">
        <dc:format>image/svg+xml</dc:format>
        <dc:type
           rdf:resource="http://purl.org/dc/dcmitype/StillImage" />
        <dc:title></dc:title>
      </cc:Work>
    </rdf:RDF>
  </metadata>
  <g
     inkscape:label="Layer 1"
     inkscape:groupmode="layer"
     id="layer1"
     transform="translate(-317.0213,-395.73901)">
    <path
       d="m 377.00825,505.0867 c 3.9384,4.2635 1.3879,13.8782 0.9128,19.1044 0,0 -3.6884,26.256 -3.6884,26.256 0.9127,7.2266 0.7377,9.0145 0,16.2537 0,0 -3.1257,12.5028 -3.1257,12.5028 -0.7877,6.5515 4.2635,17.7415 -8.0768,19.7045 -1.7504,0.1875 -3.2508,0.2 -5.0012,0 -5.0761,-0.2876 -12.2403,-0.7752 -15.616,-4.8886 -4.9762,-6.0389 -1.0628,-10.8775 -0.7877,-16.0662 0,0 -0.6627,-7.5017 -0.6627,-7.5017 0,0 0.9378,-13.7531 0.9378,-13.7531 0.9502,-9.6522 2.6631,-3.1882 2.388,-18.7543 0,0 1.6004,-23.7554 1.6004,-23.7554 0.3625,-2.7506 1.1002,-7.2266 3.0507,-9.2771 1.7879,-1.8504 4.2259,-2.138 6.589,-2.6756 5.3887,-0.7002 17.4914,-1.4503 21.4798,2.8506 z"
       id="Selection-4"
       inkscape:connector-curvature="0"
       style="fill:#c83737;stroke:#000000;stroke-width:1.25028467" />
    <path
       d="m 397.88098,413.80206 c 0.7752,4.076 2.2505,9.4147 -0.7877,12.9405 -3.1757,3.7008 -9.5271,3.3007 -13.9656,3.3132 -4.5886,0.013 -14.4908,0.6377 -17.7791,-3.3757 -1.6629,-2.5506 -0.6501,-7.4392 0,-10.3774 1.0628,-9.6397 0.9002,-15.7786 11.5401,-19.3419 15.9537,-2.6006 18.4167,3.2883 20.9923,16.8413 z"
       id="Selection-41"
       inkscape:connector-curvature="0"
       style="fill:#c83737;stroke:#000000;stroke-width:1.25028324" />
    <path
       d="m 413.43226,450.07799 c -1.2878,-6.2139 -5.0886,-10.4773 -3.4383,-14.6533 1.9005,-4.7886 8.9646,-3.0382 12.5779,-1.6629 12.0652,4.5886 30.907,20.9923 11.2525,30.0693 2.9632,10.2524 2.5506,12.0653 2.5006,22.5051 -0.025,4.1135 0,9.9273 -2.6131,13.3655 -3.3508,4.426 -11.9902,2.7757 -15.0784,-1.2377 -2.6631,-3.4633 -2.263,-9.2146 -2.313,-13.3781 -0.1376,-9.9397 -2.7882,-12.8654 2.5005,-22.505 -4.8511,-4.9262 -4.0884,-6.2265 -5.3887,-12.5029 z m 20.3921,55.0125 c 2.2505,9.2646 0.7002,19.0293 -11.2525,17.5039 0,0 7.5017,-17.5039 7.5017,-17.5039 0,0 3.7508,0 3.7508,0 z"
       id="Selection-8"
       inkscape:connector-curvature="0"
       style="fill:#c83737;stroke:#000000;stroke-width:1.25028241" />
    <path
       d="m 322.80937,447.39016 c 8.4894,-8.6019 16.7037,-12.1652 28.6189,-12.7153 -0.1375,10.9274 -1.4503,7.7392 -4.0009,16.2536 -2.463,8.2019 0.4501,7.1017 -6.0013,16.2537 5.2887,6.8891 2.5755,14.5033 2.5005,22.5051 -0.037,3.8634 0.1501,8.9145 -2.313,12.1277 -3.0882,4.0135 -11.7276,5.6638 -15.0784,1.2378 -2.8006,-3.6883 -2.6006,-10.1898 -2.6131,-14.6158 0,0 0,-6.2514 0,-6.2514 0.088,-6.6265 0.6877,-8.7145 2.5006,-15.0034 -10.0773,-4.651 -11.7402,-11.5776 -3.6133,-19.792 z m 7.3641,61.0513 c 0,0 7.5017,17.504 7.5017,17.504 -11.9527,1.5253 -13.503,-8.2394 -11.2525,-17.504 0,0 3.7508,0 3.7508,0 z"
       id="Selection-1"
       inkscape:connector-curvature="0"
       style="fill:#c83737;stroke:#000000;stroke-width:1.25028241" />
    <path
       d="m 395.09184,432.23395 c 4.2385,0.5876 8.6145,1.0502 11.3901,4.7261 2.9757,3.9384 2.138,8.8645 2.5756,13.4655 0,0 2.8131,30.0069 2.8131,30.0069 0.5627,4.1384 1.5879,10.9525 -0.7376,14.6533 -2.9257,4.6386 -10.0148,4.0885 -14.7909,4.101 0,0 -33.7577,0 -33.7577,0 -4.0009,-0.05 -9.8897,-0.2251 -12.8279,-3.3758 -3.3008,-3.5383 -1.2003,-13.1155 -0.8252,-17.8791 0,0 2.4005,-28.7565 2.4005,-28.7565 0.5127,-3.7009 1.1253,-9.2271 3.4133,-12.2278 2.4381,-3.1633 5.4638,-3.7884 9.0896,-4.7136 6.3139,-0.8627 24.9932,-0.9377 31.2571,0 z"
       id="Selection-83"
       inkscape:connector-curvature="0"
       style="fill:#c83737;stroke:#000000;stroke-width:1.25028491" />
    <path
       d="m 415.22784,505.59533 c 3.8009,3.9759 3.1383,15.1909 3.7634,20.5296 0,0 0.6627,20.0046 0.6627,20.0046 0,0 2.6756,10.0023 2.6756,10.0023 0.8627,7.1016 0.3875,14.1907 0,21.2548 0.075,5.6013 3.6258,9.3146 0.9002,14.9784 -3.1883,6.639 -14.2158,7.8893 -20.8423,7.2892 -10.6524,-0.9502 -9.9522,-7.5017 -9.3396,-16.0162 0.4001,-5.5512 -2.213,-11.3901 -3.1882,-17.5039 -1.2003,-11.3651 0.1875,-15.166 0,-18.7543 0,0 -2.113,-8.752 -2.113,-8.752 0,0 -1.5004,-13.7531 -1.5004,-13.7531 -0.9002,-9.9398 -5.1261,-18.7293 7.3892,-21.9175 5.2762,-0.7377 17.654,-1.4504 21.5924,2.6381 z"
       id="Selection-01"
       inkscape:connector-curvature="0"
       style="fill:#c83737;stroke:#000000;stroke-width:1.25028467" />
  </g>
</svg>
