<?xml version="1.0" encoding="UTF-8" standalone="no"?>
<!-- Created with Inkscape (http://www.inkscape.org/) -->

<svg
   xmlns:dc="http://purl.org/dc/elements/1.1/"
   xmlns:cc="http://creativecommons.org/ns#"
   xmlns:rdf="http://www.w3.org/1999/02/22-rdf-syntax-ns#"
   xmlns:svg="http://www.w3.org/2000/svg"
   xmlns="http://www.w3.org/2000/svg"
   xmlns:sodipodi="http://sodipodi.sourceforge.net/DTD/sodipodi-0.dtd"
   xmlns:inkscape="http://www.inkscape.org/namespaces/inkscape"
   width="9.6004114mm"
   height="25.885796mm"
   viewBox="0 0 34.017206 91.721323"
   id="svg3572"
   version="1.1"
   inkscape:version="0.91 r13725"
   sodipodi:docname="pa_rightarm_filled.svg">
  <defs
     id="defs3574" />
  <sodipodi:namedview
     id="base"
     pagecolor="#ffffff"
     bordercolor="#666666"
     borderopacity="1.0"
     inkscape:pageopacity="0.0"
     inkscape:pageshadow="2"
     inkscape:zoom="0.35"
     inkscape:cx="-145.13425"
     inkscape:cy="305.86066"
     inkscape:document-units="px"
     inkscape:current-layer="layer1"
     showgrid="false"
     fit-margin-top="0"
     fit-margin-left="0"
     fit-margin-right="0"
     fit-margin-bottom="0"
     inkscape:window-width="2560"
     inkscape:window-height="1377"
     inkscape:window-x="1672"
     inkscape:window-y="-8"
     inkscape:window-maximized="1" />
  <metadata
     id="metadata3577">
    <rdf:RDF>
      <cc:Work
         rdf:about="">
        <dc:format>image/svg+xml</dc:format>
        <dc:type
           rdf:resource="http://purl.org/dc/dcmitype/StillImage" />
        <dc:title></dc:title>
      </cc:Work>
    </rdf:RDF>
  </metadata>
  <g
     inkscape:label="Layer 1"
     inkscape:groupmode="layer"
     id="layer1"
     transform="translate(-520.13425,-746.50154)">
    <path
       d="m 524.60506,764.92301 c -1.28779,-6.2139 -5.08865,-10.47737 -3.43828,-14.65331 1.90043,-4.78858 8.96453,-3.03819 12.57784,-1.66288 12.06523,4.58854 30.90698,20.99225 11.25254,30.0693 2.96317,10.25231 2.55058,12.06522 2.50057,22.50508 -0.025,4.11343 0,9.92725 -2.61309,13.36552 -3.35076,4.426 -11.99021,2.77563 -15.07841,-1.23778 -2.6631,-3.46328 -2.26301,-9.21458 -2.31302,-13.37802 -0.13753,-9.93975 -2.78813,-12.86541 2.50057,-22.50509 -4.8511,-4.92611 -4.08843,-6.2264 -5.38872,-12.50282 z m 20.3921,55.01243 c 2.25051,9.26459 0.70016,19.0293 -11.25254,17.50396 0,0 7.5017,-17.50396 7.5017,-17.50396 0,0 3.75084,0 3.75084,0 z"
       id="Selection-8"
       inkscape:connector-curvature="0"
       style="fill:#ffffff;stroke:#000000;stroke-width:1.25028241" />
  </g>
</svg>
